<svg width="130" height="168" viewBox="0 0 130 168" fill="none" xmlns="http://www.w3.org/2000/svg">
<path d="M65.0584 0C22.1639 0.942083 -12.9683 44.4544 4.64825 86.152C17.3209 116.15 40.3564 143.048 62.9585 166.156C64.0787 167.302 66.0361 167.308 67.1563 166.156C89.3368 143.355 111.602 117.269 124.669 88.0402C143.467 45.9856 109.22 0.967867 65.0584 0ZM65.0584 97.1576C48.5284 96.3662 32.5862 83.2861 33.4332 65.4679C34.2685 47.9015 46.8599 35.0653 64.239 33.8575C64.4923 33.802 64.7595 33.7682 65.0584 33.7821C65.3612 33.7682 65.6323 33.8039 65.8876 33.8595C82.1148 35.0415 97.5147 47.9511 96.6854 65.4679C95.8938 82.0327 82.8333 98.0084 65.0584 97.1576Z" fill="#24DA41"/>
</svg>
